<svg width="176" height="143" viewBox="0 0 176 143" fill="none" xmlns="http://www.w3.org/2000/svg">
<path d="M167.937 2.1031C165.483 3.15464 163.379 4.38145 161.451 5.60825L155.491 9.46392C152.336 11.7423 149.531 14.0206 146.727 16.299L138.313 23.3093L136.735 24.5361C132.703 28.0412 128.672 31.8969 124.465 36.1031C120.258 40.4845 116.051 44.6907 112.194 48.7217C111.844 49.2474 111.318 49.9485 110.266 50.6495C109.214 51.3505 108.163 52.2268 107.286 53.1031L97.47 63.7938C96.0676 65.1959 95.0159 66.2474 94.1395 67.299C93.0877 68.3505 92.2113 69.5773 91.3348 70.8041L84.6738 78.866C83.7973 79.9175 83.0962 80.7938 82.395 81.8454C81.6938 82.8969 80.9927 83.9485 80.2915 84.8247C79.7656 85.8763 79.2398 86.9278 78.8892 87.8041C78.5386 88.6804 78.0127 89.5567 77.6622 90.433C76.7857 91.8351 75.734 93.2371 74.5069 94.6392C73.2799 96.0412 72.2281 97.4433 71.1764 98.6701L72.0529 97.7938C72.0529 97.6186 72.0529 97.4433 72.2281 97.268C72.2281 97.268 72.4034 97.0928 72.4034 96.9175C72.754 96.2165 73.1046 95.5155 73.4552 94.6392C74.1563 92.1856 75.0328 89.9072 76.4351 87.4536C77.8374 85 78.8892 82.5464 79.7656 79.9175L82.2197 74.134C82.395 73.6082 82.5703 73.0825 82.7456 72.5567C82.7456 72.2062 82.9209 71.6804 83.2714 70.9794L83.4467 68C83.0962 66.0722 83.622 63.6186 85.3749 60.6392C86.9525 57.8351 88.5302 55.0309 90.1078 52.5773C91.5101 50.299 93.0877 48.0206 94.8406 45.7423C96.5935 43.4639 97.9958 41.1856 99.3982 38.9072L99.7487 38.0309L100.625 36.2784L99.0476 37.6804C98.697 37.5052 98.697 37.3299 98.8723 37.3299C98.8723 37.3299 98.8723 37.1546 98.697 36.9794C99.2229 36.2784 99.7487 35.7526 100.099 35.2268C100.45 34.701 100.625 34.3505 100.976 34H100.625C100.45 34.3505 100.275 34.5258 100.099 34.8763C99.7487 35.2268 99.5734 35.4021 99.3982 35.5773V34.3505C99.2229 34.701 99.0476 35.0516 98.697 35.4021L97.9958 36.1031C97.9958 36.2784 97.9958 36.4536 98.1711 36.4536L96.2429 37.1546L96.0676 36.9794C96.0676 36.9794 96.0676 36.8041 96.0676 36.4536C96.7688 35.7526 97.8205 34.8763 99.2229 33.8247C100.625 32.9485 101.852 31.8969 102.904 30.6701L103.43 29.6186C103.079 29.6186 102.729 29.7938 102.378 30.1443L101.677 29.4433L102.904 28.9175C102.729 28.9175 102.729 28.9175 102.729 28.9175C102.729 28.9175 102.553 28.7423 102.378 28.7423V28.9175C102.203 28.9175 102.028 28.7423 101.677 28.7423C101.502 28.7423 101.502 28.9175 101.502 28.9175H100.275L99.0476 27.866C98.697 27.5155 98.5217 27.165 98.5217 26.6392C97.8205 26.9897 97.2947 27.165 97.2947 27.165H97.1194C96.7688 27.165 96.7688 27.165 96.7688 26.9897H96.2429L96.0676 27.165C95.7171 27.5155 95.5418 27.6907 95.3665 27.6907C95.0159 27.6907 94.8406 27.866 94.8406 28.0412L91.8607 26.9897L91.6854 27.6907C90.9842 28.3918 90.4584 28.9175 89.9325 29.4433C89.2313 29.9691 88.5302 30.3196 87.6537 30.4949C87.6537 29.7938 87.3031 29.4433 86.7773 29.4433C86.0761 29.4433 85.3749 29.9691 84.6738 30.8454C83.7973 31.8969 83.2714 32.4227 83.2714 32.5979C83.0962 32.9485 82.9209 33.1237 82.9209 33.299C82.7456 33.4742 82.7456 33.6495 82.7456 33.8247H81.3432C80.1162 34.1753 79.0645 34.8763 78.3633 35.9278C77.4869 37.1546 76.961 38.0309 76.6104 38.732C75.5587 40.4845 74.1563 41.8866 72.5787 43.1134C71.0011 44.5155 69.5988 45.9175 68.5471 47.4949C68.1965 48.0206 68.1965 48.3711 68.1965 48.5464C68.1965 48.8969 68.1965 49.2474 68.0212 49.5979C67.8459 49.9485 67.6706 50.1237 67.4953 50.299C67.32 50.4742 67.1447 50.6495 67.1447 50.8247V51.3505L68.3718 50.6495C64.8659 54.5052 61.7107 58.3608 58.7308 62.2165C55.7508 66.2474 52.7709 70.1031 49.9663 73.7835C48.3886 76.2371 46.4605 78.6907 44.1817 81.1443C41.9029 83.7732 39.9747 86.2268 38.5724 88.3299C38.5724 87.6289 38.923 86.9278 39.6241 86.2268C39.6241 85.8763 39.7994 85.5258 40.3253 85.1753C40.3253 85.1753 40.3253 84.8247 40.3253 84.4742C40.3253 84.1237 40.5006 83.7732 40.5006 83.4227C41.0264 81.3196 41.9029 79.2165 43.1299 77.1134C44.1817 75.0103 45.0581 73.0825 45.7593 70.9794L47.5122 63.7938C47.6875 63.268 47.8628 62.7423 47.8628 62.2165C47.8628 61.866 47.8628 61.3402 47.6875 60.8144C46.9863 59.5876 47.3369 57.6598 48.7392 55.2062C50.1416 52.7526 51.5439 50.299 53.1215 47.8454C54.1732 45.9175 55.225 43.9897 56.6273 42.0619C58.0296 40.134 59.2567 38.2062 60.659 36.1031L62.2366 33.4742L60.659 34.701C60.4837 34.5258 60.3084 34.3505 60.3084 34.3505C60.1331 34.3505 59.9578 34.3505 59.9578 34C60.659 33.6495 61.1848 32.9485 61.3601 32.2474L62.4119 31.3711L60.659 32.9485C60.4837 32.5979 60.4837 32.2474 60.659 31.8969C60.8343 31.5464 60.8343 31.3711 60.659 31.0206C60.4837 31.3711 60.3084 31.5464 60.3084 31.7217C60.1331 31.8969 60.1331 32.0722 60.1331 32.2474C60.1331 32.5979 59.7825 32.9485 59.2567 33.4742V33.6495C58.9061 33.8247 58.7308 34 58.3802 34C58.0296 34 57.8543 34.1753 57.679 34.3505C57.3285 34 57.3285 33.6495 57.5038 32.9485H56.452H55.5756C55.225 32.9485 55.0497 32.9485 55.0497 32.5979C54.3485 33.299 53.9979 33.4742 53.9979 33.4742C53.8227 33.4742 53.2968 33.4742 52.4203 33.8247L52.0697 34.3505C52.0697 34.701 51.8945 34.8763 51.7192 34.8763C51.3686 35.0516 51.3686 35.2268 51.3686 35.4021V35.5773H47.5122C47.5122 36.2784 47.1616 36.9794 46.4605 37.6804C46.2852 38.2062 45.9346 38.5567 45.584 38.9072C45.0581 39.2577 44.5323 39.7835 44.0064 40.134C43.6558 39.9588 43.4805 39.7835 43.4805 39.433C43.3052 39.2577 43.1299 39.0825 42.9546 39.0825C42.4288 39.0825 41.9029 39.433 41.5523 39.7835C41.377 40.6598 41.0264 41.3608 40.5006 42.0619C39.9747 42.7629 39.9747 43.4639 40.3253 43.9897L38.3971 44.5155C37.8712 44.6907 37.3453 45.0412 36.8195 45.567C36.1183 46.9691 35.5924 48.0206 35.5924 49.0722C35.5924 50.1237 35.0666 51.3505 34.3654 52.5773C34.0148 52.9278 33.8395 53.1031 33.8395 53.2784C33.6642 53.4536 33.489 53.6289 33.489 53.9794C32.7878 55.0309 32.2619 55.9072 32.0866 56.433C31.7361 56.9588 31.7361 57.3093 31.7361 57.6598C31.7361 58.0103 31.7361 58.3608 31.7361 58.7113C31.7361 59.0619 31.7361 59.5876 31.7361 59.9381V60.8144L32.9631 59.7629C32.7878 60.8144 32.4372 61.6907 31.9113 62.567C31.2102 63.4433 30.8596 64.3196 30.6843 65.1959L25.4256 79.9175C25.075 81.3196 24.7244 82.5464 24.3739 83.7732C23.848 85 23.4974 86.2268 23.1468 87.4536L21.9198 91.134C21.5692 92.1856 21.2186 93.5876 20.868 95.1649C20.5175 96.9175 20.1669 98.4949 19.8163 100.072C19.4657 101.649 19.1151 103.052 19.1151 104.103C18.9398 105.33 18.9398 105.856 19.2904 105.856C19.641 105.856 19.9916 105.856 19.9916 105.505C19.9916 105.33 20.1669 105.155 20.3422 104.804C20.3422 104.454 20.3422 104.103 20.1669 103.753L21.2186 101.124C21.5692 99.8969 21.9198 98.6701 22.6209 97.268C23.1468 96.0412 23.6727 94.6392 24.3739 93.2371H24.5491L24.3739 94.2887C23.3221 97.0928 22.7962 99.7216 22.4457 102.175C22.0951 104.629 21.7445 107.258 21.7445 109.711L21.9198 110.237C22.0951 110.938 22.0951 111.464 22.0951 111.99C21.9198 112.691 22.0951 113.216 22.4457 113.567V112.691C22.6209 111.464 22.7962 110.237 22.9715 109.186C23.1468 108.134 23.4974 106.907 24.1986 105.505C24.7244 105.505 24.8997 106.206 24.5491 107.433C24.1986 108.66 24.1986 109.887 24.5491 111.113C24.1986 111.113 24.1986 111.464 24.1986 112.165C24.1986 112.866 24.1986 113.567 24.3739 114.443C24.3739 115.32 24.5491 116.021 24.7244 116.722C24.8997 117.423 25.075 117.773 25.4256 117.773L24.3739 119.526C24.1986 119.876 24.0233 120.227 24.0233 120.577C23.848 120.928 24.0233 121.103 24.3739 121.103C24.3739 121.103 24.7244 120.928 25.075 120.227C25.4256 119.526 25.7762 119 26.1268 118.649C25.7762 119 25.4256 119.701 25.075 120.753C24.7244 121.804 24.5491 122.33 24.8997 122.33L25.075 122.155V122.33H25.4256L25.6009 122.155C25.6009 121.804 25.7762 121.278 26.1268 120.577C26.4773 120.052 26.6526 119.526 26.8279 119L28.055 117.773C28.4055 117.773 28.7561 117.423 29.282 116.371C29.8079 115.495 30.3337 114.794 30.6843 114.268H31.0349C30.6843 114.794 30.509 115.32 30.3337 115.67C30.1584 116.196 29.9832 116.722 29.8079 117.072L31.5608 114.969C31.5608 115.495 31.5608 115.845 31.7361 115.845L30.3337 117.948C30.3337 118.124 30.1584 118.474 29.9832 118.825C29.8079 119.351 29.6326 119.701 29.4573 120.052C30.509 118.299 31.7361 116.897 32.7878 116.021L33.1384 115.32C33.8395 114.093 34.716 112.691 35.7677 111.289C36.8195 109.887 37.8712 108.485 39.0983 107.082L40.8512 105.155C42.4288 103.227 43.8311 101.299 45.2334 99.3711C46.6357 97.4433 48.0381 95.5155 49.6157 93.4124L55.225 86.7526C55.7508 86.5773 56.2767 86.2268 56.8026 85.5258C57.1532 84.8247 57.679 84.1237 58.2049 83.4227C59.0814 82.5464 59.9578 81.6701 60.8343 80.6186C61.5354 79.9175 62.0613 79.0412 62.7625 78.165C63.4636 77.4639 63.9895 76.7629 64.3401 76.0619L64.8659 75.8866C62.5872 80.4433 60.4837 85.1753 58.7308 89.9072C56.8026 94.6392 55.4003 98.8454 54.3485 102.526C53.9979 103.577 53.6474 105.155 52.9462 106.907C52.245 108.835 51.7192 110.763 51.018 112.515C50.3168 114.268 49.9663 115.845 49.6157 117.247C49.2651 118.649 49.2651 119.351 49.6157 119.351C49.791 119.351 49.9663 119.175 50.3168 118.649C50.4921 118.299 50.6674 118.124 50.6674 117.948C50.6674 117.773 50.8427 117.423 51.1933 116.897L52.4203 113.918C52.7709 112.515 53.4721 111.113 54.1732 109.536C54.8744 108.134 55.5756 106.557 56.2767 105.155L56.452 104.979L56.2767 106.206C55.225 108.66 54.3485 111.113 53.6474 113.392C52.9462 115.845 52.245 118.124 51.8945 120.402C52.7709 119 53.8227 117.948 55.0497 116.897L55.225 117.072C54.8744 117.423 54.6991 117.598 54.5238 117.773C54.3485 118.124 54.1732 118.299 53.9979 118.474L52.0697 121.103C51.7192 121.278 51.7192 121.454 51.7192 121.629C51.7192 121.804 51.7192 121.979 51.5439 121.979C50.8427 123.031 50.1416 123.907 49.4404 124.784C48.7392 125.835 48.0381 126.711 47.5122 127.763C46.9863 128.464 46.6357 128.99 46.4605 129.34C46.2852 129.866 46.1099 130.392 45.7593 131.093C46.4605 130.041 47.1616 129.34 47.6875 128.99L48.2134 129.691L45.9346 132.32C45.584 132.845 45.4087 133.196 45.2334 133.546L44.5323 134.598L46.9863 131.794C46.9863 132.32 46.811 132.845 46.4605 133.546C46.1099 134.247 45.9346 134.598 46.2852 134.773C46.2852 134.598 46.4605 134.247 46.6357 133.897C46.6357 133.546 46.811 133.196 47.1616 132.845C47.8628 131.969 48.2134 131.443 48.3886 131.093L48.9145 130.392C48.9145 130.392 49.0898 130.216 49.4404 130.041C49.791 129.866 49.9663 129.691 50.3168 129.515C50.4921 129.866 50.4921 130.216 50.4921 130.392C50.3168 130.742 50.3168 131.093 50.3168 131.443H50.8427C51.018 131.443 51.3686 131.619 51.7192 131.619L52.7709 131.969C52.9462 131.619 53.2968 131.268 53.6474 131.093C53.2968 131.794 53.2968 132.32 53.4721 133.021C53.4721 133.722 53.6474 134.247 53.8227 134.773H55.225C55.0497 134.773 55.0497 134.598 55.225 134.598C55.225 134.598 55.5756 134.598 56.452 134.948L56.9779 135.299L56.452 134.598V133.546C56.452 133.371 56.452 133.196 56.6273 133.196C56.8026 133.196 56.9779 133.196 57.3285 132.845C57.3285 132.32 57.5038 131.794 57.5038 131.093C57.5038 130.567 57.679 130.041 58.0296 129.34H58.2049C58.0296 129.866 58.0296 130.392 58.0296 130.742C58.0296 131.093 58.2049 131.619 58.2049 132.144L59.2567 127.938H60.1331C59.7825 128.639 59.4319 129.515 59.4319 130.567C59.4319 131.794 59.4319 132.845 59.7825 133.546L59.9578 133.722V133.196C59.9578 132.845 60.1331 132.32 60.1331 131.969C60.1331 131.619 60.3084 131.268 60.659 130.567L61.1848 130.216V129.34L61.3601 126.887L62.2366 126.01C62.9378 124.433 64.3401 123.206 66.093 122.155C65.7424 123.206 65.9177 123.557 66.6189 123.557C66.7941 123.557 67.32 123.381 68.0212 123.031C68.1965 122.856 68.3718 122.68 68.3718 122.33C68.3718 121.979 68.3718 121.804 68.7223 121.454C68.8976 121.103 69.2482 120.577 69.5988 120.227C69.9494 119.876 70.1247 119.526 70.4752 119C70.6505 118.825 70.8258 118.474 71.0011 118.124C71.0011 117.773 71.1764 117.423 71.527 117.072C72.9293 117.072 74.1563 116.546 75.0328 115.32C75.734 114.268 76.6104 112.866 77.6622 111.289L78.5386 109.711C79.5903 108.134 80.9927 106.381 83.0962 104.278C85.0243 102.351 86.4267 100.598 87.1278 99.1959C87.6537 98.6701 88.0043 98.1443 88.1796 97.6186C88.1796 97.268 88.3549 96.7423 88.7054 96.2165C88.7054 96.2165 88.7054 96.0412 88.8807 95.6907C89.056 95.5155 89.2313 95.3402 89.5819 94.9897C89.7572 94.8144 89.9325 94.6392 89.9325 94.2887C89.9325 93.9381 90.1078 93.7629 90.4584 93.4124L88.3549 94.8144L90.4584 92.3608C94.1395 88.3299 97.6453 84.1237 100.976 79.9175C104.131 75.7113 107.461 71.5052 110.967 67.299L112.895 65.3711C117.804 60.1134 122.536 54.6804 127.269 49.4227C132.002 44.165 137.086 38.9072 142.695 33.6495C142.695 33.6495 142.695 33.4742 143.045 33.1237C143.221 32.9485 143.396 32.5979 143.571 32.2474L143.396 32.0722C142.695 32.0722 142.169 32.4227 141.818 32.9485C141.292 33.6495 140.767 34.1753 140.241 34.5258L137.086 37.6804C135.333 39.433 133.58 41.0103 131.652 42.4124C129.548 43.9897 127.795 45.567 126.393 47.1443C126.568 46.9691 126.743 46.7938 126.919 46.4433C126.919 46.0928 127.269 45.9175 127.62 45.567C129.899 43.4639 132.177 41.1856 134.281 38.9072C136.384 36.8041 138.663 34.5258 140.767 32.2474C142.87 29.9691 145.149 27.6907 147.603 25.2371C150.057 22.9588 152.686 20.5052 155.491 18.0516L156.367 17C153.913 18.7526 151.635 20.6804 149.706 22.433C147.603 24.1856 145.675 26.1134 143.571 27.866L141.994 29.268L141.643 28.567L142.695 27.165C144.272 25.7629 145.85 24.3608 147.428 22.9588C148.83 21.5567 150.408 20.1546 152.161 18.7526C153.212 17.701 154.79 16.4742 156.718 15.0722C158.471 13.6701 160.399 12.268 162.327 10.866C164.08 9.46392 165.833 8.23711 167.235 7.18556C168.638 6.13403 169.339 5.433 169.69 4.90721C169.69 4.73196 169.865 4.55671 169.865 4.38145L165.658 6.48453C167.06 5.25774 168.813 4.20618 170.566 3.15464C172.319 2.1031 174.072 1.05154 176 0C175.124 0.350522 174.072 1.05154 172.669 1.75258L168.638 4.03093C167.235 4.73196 166.008 5.433 164.957 6.13403C163.905 6.83506 163.204 7.01032 162.853 7.01032L157.594 10.3402L156.718 11.2165C156.367 11.567 155.842 11.9175 155.491 12.0928C156.718 11.0412 157.595 10.3402 158.12 9.81444C158.471 9.46392 159.347 8.76289 160.75 7.71135L157.419 9.81444C154.965 11.9175 152.511 13.6701 150.408 15.4227C148.304 17.1753 146.025 19.1031 143.571 21.0309C146.376 17.8763 150.057 14.7217 154.264 11.3918C158.471 8.06185 163.029 4.90721 167.937 2.1031ZM133.755 41.5361C128.496 46.6186 123.763 51.701 119.381 56.9588C114.999 62.2165 110.441 67.299 105.533 72.2062L103.079 75.5361C101.326 77.1134 99.924 78.6907 98.697 80.4433C97.47 82.1959 96.0676 83.7732 94.49 85.5258L93.263 86.5773L92.9124 87.4536C91.8607 89.2062 90.4584 90.7835 88.8807 92.5361C87.3031 94.2887 85.9008 95.5155 84.6738 96.2165C85.0243 95.6907 85.3749 95.3402 85.5502 94.9897C85.5502 94.8144 86.0761 94.4639 87.1278 93.9381C87.1278 93.7629 87.1278 93.4124 87.3031 93.0619C87.4784 92.7113 87.6537 92.3608 88.0043 92.0103C88.8807 90.433 90.1078 88.6804 91.6854 86.9278C93.263 85.1753 94.6653 83.4227 96.0676 81.6701C97.1194 80.4433 98.1711 79.3918 99.2229 78.6907C100.275 77.9897 101.326 76.9381 102.203 75.7113C102.378 75.3608 102.553 75.0103 102.729 74.6598C102.904 74.3093 103.079 73.9588 103.43 73.6082C103.956 72.5567 104.657 71.3299 105.709 70.1031C106.76 69.0515 107.812 67.8247 108.864 66.5979C112.895 62.3918 116.927 58.1856 120.784 53.8041C124.64 49.4227 129.022 45.3918 133.755 41.5361ZM52.5956 110.588C52.5956 110.237 52.5956 109.711 52.9462 109.186C53.1215 108.835 53.2968 108.309 53.6474 107.608L57.3285 96.9175L62.9378 83.4227C63.2883 82.1959 63.8142 80.9691 64.3401 79.7423C64.866 78.6907 65.3918 77.4639 65.9177 76.4124L67.8459 72.5567L68.3718 71.6804C68.0212 71.6804 68.0212 71.6804 68.3718 71.5052C68.7223 70.9794 69.0729 70.4536 69.4235 69.9278C69.7741 69.4021 70.3 68.701 71.0011 68C70.3 69.4021 69.5988 70.9794 68.8976 72.732C68.1965 74.6598 67.4953 76.0619 67.1447 76.7629C67.1447 77.1134 66.7941 77.6392 66.2683 77.9897C65.5671 78.3402 65.2165 78.6907 65.0412 79.0412C65.0412 79.0412 65.0412 79.7423 65.0412 80.7938C64.866 82.0206 64.5154 83.5979 63.9895 85.3505C63.4636 87.2784 62.7625 89.3814 61.886 91.6598C60.8343 94.1134 59.6072 96.3918 58.2049 98.6701L53.2968 109.536C53.2968 109.887 53.1215 110.062 52.9462 110.062C52.7709 110.237 52.7709 110.412 52.7709 110.588H52.5956ZM37.3453 91.8351C37.5206 91.4845 37.6959 90.9588 37.6959 90.433L50.8427 73.7835C51.3686 73.0825 51.8945 72.2062 52.5956 71.5052C53.2968 70.8041 53.9979 69.9278 54.8744 68.8763L56.9779 66.4227C58.3802 64.8454 59.7825 63.0928 60.8343 61.3402C61.886 59.5876 63.2883 58.1856 64.8659 57.3093C64.8659 57.134 64.8659 56.9588 64.8659 56.7835C64.8659 56.7835 65.0412 56.6083 65.0412 56.2577C65.5671 55.2062 66.6189 53.9794 68.0212 52.5773C69.4235 51.1753 70.6505 50.299 72.0529 49.5979C71.3517 50.299 71.0011 50.6495 71.0011 50.8247C70.8258 51 70.4752 51.1753 69.9494 51.3505C69.4235 52.0516 69.0729 52.7526 69.0729 53.1031C67.4953 55.732 65.5671 58.1856 63.113 60.2887C60.659 62.567 58.9061 64.3196 58.2049 65.5464C57.8543 66.0722 57.679 66.5979 57.679 66.9485C57.5037 67.299 57.3285 67.8247 56.9779 68.1753C56.6273 68.8763 56.1014 69.4021 55.5756 70.1031C55.0497 70.8041 54.6991 71.3299 54.3485 71.8557L45.2334 83.0722L37.3453 91.8351ZM20.868 98.3196C21.0433 97.9691 21.2186 97.4433 21.3939 97.0928C21.5692 96.7423 21.7445 96.2165 21.7445 95.866L24.1986 87.2784C25.2503 83.7732 26.3021 80.268 27.5291 76.9381C28.7561 73.6083 30.1584 69.9278 31.9113 65.7216C32.2619 65.3711 32.4372 65.1959 32.7878 65.0206C32.2619 64.4949 32.2619 63.6186 32.9631 62.2165C33.6642 60.9897 34.0148 60.2887 34.3654 59.9381C34.5407 59.5876 35.2419 58.8866 36.4689 58.1856C36.2936 58.5361 36.2936 58.7113 36.2936 58.7113C36.2936 58.8866 36.2936 58.8866 36.4689 58.8866C35.943 59.4124 35.4172 59.7629 34.8913 59.7629C34.8913 60.4639 34.8913 61.165 34.716 62.0412C34.3654 62.9175 34.1901 63.7938 33.8395 64.6701C33.489 65.7217 33.1384 66.5979 32.7878 67.299L31.9113 69.2268C31.5608 69.7526 31.3855 70.1031 31.0349 70.2784C30.6843 70.6289 30.509 70.9794 30.3337 71.3299C29.6326 71.8557 29.6326 72.2062 30.3337 72.5567C30.509 73.2577 30.3337 74.4845 29.8079 76.2371C29.1067 78.1649 28.4055 80.268 27.5291 82.7216C26.4773 85.1753 25.6009 87.8041 24.5491 90.433C23.4974 93.0619 22.6209 95.3402 21.9198 97.4433L20.868 98.3196ZM31.9113 115.144C32.0866 114.969 32.0866 114.794 32.0866 114.443C32.0866 114.268 32.0866 113.918 32.4372 113.567L32.9631 112.691C33.8395 111.639 34.5407 110.763 35.0666 109.711C35.5924 108.835 36.2936 107.959 37.1701 107.082C37.1701 107.258 36.8195 107.784 36.4689 108.66C35.7677 109.711 35.2419 110.588 34.5407 111.639C33.8395 112.691 33.3137 113.567 32.9631 113.918L31.9113 115.144ZM36.6442 93.7629V93.4124C37.5206 92.7113 38.2218 91.8351 38.923 91.134C39.6241 90.433 40.3253 89.732 41.0264 88.6804L41.5523 88.5052L40.5006 89.9072C39.7994 90.9588 39.0983 91.8351 38.3971 92.8866C37.6959 93.9381 36.8195 94.8144 36.1183 95.866L36.6442 93.7629ZM48.3886 124.784C48.0381 124.784 48.0381 124.608 48.2134 124.258C48.2134 124.082 48.3886 123.907 48.3886 123.557C48.7392 123.206 49.0898 122.68 49.4404 122.33C49.791 121.979 49.9663 121.629 50.3168 120.928C50.4921 120.753 50.6674 120.577 50.8427 120.227C51.018 119.876 51.1933 119.701 51.3686 119.351L47.8628 122.856C47.5122 123.557 47.3369 124.082 47.3369 124.433C47.3369 124.784 47.6875 124.784 48.3886 124.784ZM86.7773 102.526L87.6537 100.948C88.7055 99.3711 89.056 98.4948 88.3549 98.4948C88.1796 98.4948 88.0043 98.6701 88.0043 98.6701C88.0043 98.6701 87.829 98.6701 87.6537 98.6701C86.7773 100.247 86.4267 101.474 86.7773 102.526ZM99.924 40.134C98.8723 41.1856 98.1711 42.0619 97.47 42.9381C96.7688 43.9897 96.2429 44.866 95.5418 45.7423C95.5418 45.3918 95.7171 45.0412 96.0676 44.6907C96.4182 44.165 97.1194 43.2887 97.8205 41.8866C98.5217 40.6598 99.0476 39.9588 99.3982 39.9588C99.5734 39.9588 99.7487 40.134 99.924 40.134ZM69.5988 44.165C69.2482 44.5155 69.0729 44.6907 68.8976 45.0412C68.7223 45.3918 68.547 45.567 68.3718 45.7423L67.6706 46.9691C67.4953 47.3196 67.6706 47.4949 68.0212 47.4949C68.1965 47.4949 68.3718 47.4949 68.5471 47.3196C68.5471 47.1443 68.7223 46.9691 69.0729 46.6186C69.2482 46.268 69.4235 45.9175 69.4235 45.567C69.4235 45.2165 69.5988 44.866 69.5988 44.165ZM61.3601 36.9794C60.659 37.8557 60.1331 38.732 59.4319 39.433C58.7308 40.3093 58.0296 41.1856 57.5038 42.0619H57.3285L58.2049 40.6598C58.3802 40.3093 58.9061 39.433 59.6072 38.3815C60.3084 37.3299 60.8343 36.8041 61.1848 36.8041L61.3601 36.9794ZM30.6843 55.3814C30.509 55.732 30.3337 56.0825 30.1584 56.7835C29.9832 57.4845 30.1584 57.8351 30.6843 57.8351C30.8596 57.8351 31.0349 57.8351 31.0349 57.6598C31.0349 57.6598 31.2102 57.4845 31.5608 57.4845C31.5608 56.6082 31.3855 55.9072 30.6843 55.3814ZM99.924 40.134C100.099 40.4845 99.924 41.0103 99.3982 41.8866C98.697 42.7629 98.5217 43.2887 98.5217 43.6392L100.625 41.3608C100.625 40.8351 100.625 40.4845 100.625 40.3093C100.625 40.3093 100.45 40.134 99.924 40.134ZM102.378 32.2474V32.9485L100.625 34.701C100.45 34.8763 100.45 35.0516 100.45 35.2268C100.976 35.0516 101.326 34.8763 101.677 34.5258C101.852 34.3505 102.203 34 102.729 33.6495C103.079 33.1237 103.255 32.7732 103.255 32.7732C103.255 32.7732 102.904 32.5979 102.378 32.2474ZM61.3601 36.9794C61.7107 37.1546 61.7107 37.5052 61.3601 38.2062C60.8343 38.9072 60.659 39.6083 61.0096 40.134C61.0096 39.7835 61.3601 39.433 61.7107 39.0825C62.0613 38.732 62.2366 38.2062 62.5872 37.8557V37.1546C62.5872 37.1546 62.0613 36.9794 61.3601 36.9794ZM49.0898 124.608L48.7392 124.959C48.5639 125.134 48.3886 125.134 48.3886 125.134V124.784L51.8945 120.402L52.0697 121.103C51.3686 121.804 50.8427 122.33 50.4921 122.856L49.0898 124.608ZM42.6041 131.093L42.7794 131.969C43.3052 131.268 43.8311 130.742 44.1817 130.216C44.5323 129.691 44.8828 129.165 45.4087 128.464L42.6041 131.093ZM84.6738 105.155L85.9008 103.052C85.3749 103.753 85.0243 104.103 84.6738 104.278C84.3232 104.629 83.7973 105.155 83.2714 105.856C83.4467 105.68 83.622 105.505 83.7973 105.505L84.6738 105.155ZM55.225 134.773H53.8227C53.6474 134.948 53.6474 135.124 53.8227 135.474C53.9979 135.825 54.1732 136 54.5238 136C54.8744 136 55.0497 136 55.225 135.825C55.225 135.649 55.0497 135.474 55.0497 135.299C55.0497 135.299 55.0497 135.124 55.225 134.773ZM71.0011 42.0619C70.6505 42.4124 70.4752 42.7629 70.3 42.9381C69.9494 43.2887 69.7741 43.4639 69.7741 43.6392C69.9494 43.4639 70.3 43.2887 70.6505 43.1134C71.0011 42.9381 71.7023 42.4124 72.754 41.5361L71.0011 42.0619ZM102.378 32.2474L100.976 33.299C100.45 33.6495 99.924 34 99.3982 34.3505C99.5734 34.3505 99.7487 34.3505 99.7487 34.1753C99.7487 34.1753 99.5734 34 99.3982 34L101.852 32.2474V32.0722C102.028 32.0722 102.203 32.2474 102.203 32.2474C102.203 32.2474 102.203 32.2474 102.378 32.2474ZM65.0412 33.4742L64.6907 32.9485L63.113 34.701L65.0412 33.4742ZM31.2102 53.2784L30.6843 54.8557C30.6843 54.8557 30.8596 54.5052 31.3855 53.9794C31.7361 53.4536 32.2619 53.1031 32.7878 52.7526C32.4372 52.9278 32.2619 53.1031 31.9113 53.1031C31.5608 53.1031 31.3855 53.2784 31.2102 53.2784ZM103.605 36.1031L103.43 35.5773C103.079 36.1031 102.729 36.4536 102.378 36.8041C102.028 37.1546 101.677 37.5052 101.502 37.8557C101.852 37.6804 102.028 37.5052 102.378 37.1546C102.729 36.8041 103.079 36.4536 103.605 36.1031ZM99.0476 34.8763V35.0516C98.5217 35.5773 97.9958 36.1031 97.2947 36.4536H97.47C97.47 36.2784 97.6453 35.9278 97.9958 35.5773C98.3464 35.2268 98.8723 34.8763 99.2229 34.5258C99.2229 34.701 99.0476 34.8763 98.8723 34.8763C98.697 34.8763 98.697 34.8763 99.0476 34.8763ZM59.9578 52.2268V52.0516C59.9578 52.0516 60.1331 52.0515 60.1331 51.8763C60.1331 51.5258 59.9578 51.3505 59.7825 51.3505L58.9061 52.0516C59.0814 52.2268 59.4319 52.2268 59.9578 52.2268ZM24.3739 63.0928L24.5491 62.9175C24.3739 62.9175 24.1986 62.9175 24.1986 62.7423C24.1986 62.7423 24.0233 62.567 23.848 62.567L23.1468 63.268C23.4974 63.268 24.0233 63.268 24.3739 63.0928ZM97.8205 92.3608L97.47 92.7113V93.2371L97.8205 92.8866C97.9958 92.7113 98.1711 92.5361 98.5217 92.5361H98.3464C98.1711 92.5361 97.9958 92.5361 97.9958 92.5361L97.8205 92.3608ZM105.533 30.6701C105.358 30.6701 105.358 30.4949 105.358 30.3196C105.007 30.3196 104.832 30.4949 104.482 30.6701C104.131 30.8454 103.956 31.0206 103.605 31.0206C104.482 30.8454 105.183 30.6701 105.533 30.6701ZM31.0349 107.082C31.0349 107.258 31.0349 107.258 31.0349 107.258L31.2102 107.433L30.6843 107.959C30.6843 107.959 30.6843 107.784 30.8596 107.608C30.8596 107.608 31.0349 107.433 31.0349 107.082ZM56.1014 134.948C55.7508 134.948 55.5756 134.948 55.5756 134.948C55.5756 134.948 55.4003 134.773 55.225 134.773H56.2767L56.1014 134.948ZM99.3982 33.6495L99.2229 34.5258V34.3505C99.2229 34.3505 99.3982 34.3505 99.3982 34C99.5734 34 99.5735 33.8247 99.5735 33.8247C99.3982 33.8247 99.3982 33.8247 99.3982 33.6495ZM27.0032 117.773V117.598L27.1785 117.773C27.1785 117.773 27.3538 117.773 27.5291 117.773H27.8797H27.0032ZM56.2767 135.474V135.299V135.474ZM28.7561 117.598V117.773V117.598ZM103.079 29.268C102.904 29.268 102.904 29.268 102.904 29.0928V28.9175C102.904 28.9175 103.079 29.0928 103.079 29.268ZM30.6843 55.3814V54.8557V55.3814ZM28.055 117.948C27.8797 117.948 27.8797 117.948 28.055 117.773V117.948ZM161.276 7.36082C160.925 7.71135 160.75 7.71135 160.75 7.71135C160.75 7.71135 160.925 7.71135 161.276 7.36082ZM101.852 28.567L101.677 28.7423V28.567H101.852ZM56.2767 135.649V135.474V135.649Z" fill="#32C8FF"/>
<path d="M140.742 55.7967C144.525 72.4798 142.158 89.9679 134.076 105.045C125.994 120.122 112.74 131.774 96.7513 137.858C80.7631 143.942 63.1158 144.049 47.055 138.159C30.9942 132.269 17.5999 120.779 9.33541 105.801C1.07094 90.8232 -1.50795 73.365 2.07305 56.6373C5.65404 39.9097 15.1541 25.0373 28.8261 14.7555C42.4981 4.47369 59.4226 -0.526208 76.487 0.67536C93.5514 1.87693 109.608 9.19916 121.705 21.2954" stroke="#3247FF"/>
</svg>
